HIERARCHY
ROOT ui
{
	 OFFSET 0 0 0
	 CHANNELS 3 XPosition YPosition Z Position
	 EndSite
	 {
	 OFFSET 0 -1 0
	 }
}
ROOT li
{
	 OFFSET 0 0 0
	 CHANNELS 3 XPosition YPosition Z Position
	 EndSite
	 {
	 OFFSET 0 -1 0
	 }
}
ROOT ul
{
	 OFFSET 0 0 0
	 CHANNELS 3 XPosition YPosition Z Position
	 EndSite
	 {
	 OFFSET 0 -1 0
	 }
}
ROOT ll
{
	 OFFSET 0 0 0
	 CHANNELS 3 XPosition YPosition Z Position
	 EndSite
	 {
	 OFFSET 0 -1 0
	 }
}
ROOT tt
{
	 OFFSET 0 0 0
	 CHANNELS 3 XPosition YPosition Z Position
	 EndSite
	 {
	 OFFSET 0 -1 0
	 }
}
ROOT tb
{
	 OFFSET 0 0 0
	 CHANNELS 3 XPosition YPosition Z Position
	 EndSite
	 {
	 OFFSET 0 -1 0
	 }
}
ROOT td
{
	 OFFSET 0 0 0
	 CHANNELS 3 XPosition YPosition Z Position
	 EndSite
	 {
	 OFFSET 0 -1 0
	 }
}
ROOT v
{
	 OFFSET 0 0 0
	 CHANNELS 3 XPosition YPosition Z Position
	 EndSite
	 {
	 OFFSET 0 -1 0
	 }
}
ROOT bn
{
	 OFFSET 0 0 0
	 CHANNELS 3 XPosition YPosition Z Position
	 EndSite
	 {
	 OFFSET 0 -1 0
	 }
}
MOTION
Frames: 13
Frame Time: 0.002
0.0021055939197540284	2.0848999917507172E-4	0		0.6525816040039063	-2.741220947265625	0		-0.8884241333007813	-0.05016786193847656	0		0.10754093170166015	-3.2589658203125	0		1.1159208984375	-1.0566298828125	0		2.783594482421875	-0.375751708984375	0		4.3135234375	0.02244748878479004	0		5.72080517578125	0.22557121276855469	0		-0.3549965515136719	5.875943359375	0		
0.07535981750488281	0.001438323974609375	0		0.6457960815429687	-2.741220947265625	0		-0.9461641845703125	-0.04766012954711914	0		0.030666904449462892	-3.267281982421875	0		1.0452210693359374	-1.0490140380859374	0		2.757801513671875	-0.37858627319335936	0		4.31168408203125	0.014367026329040527	0		5.72019189453125	0.20809490966796876	0		-0.3806666259765625	5.8801357421875	0		
0.08073941040039062	0.0033381919860839843	0		0.651051513671875	-2.748328369140625	0		-0.8567601318359375	-0.04356222534179687	0		0.12773619079589843	-3.2932734375	0		1.0605472412109376	-1.0512239990234375	0		2.78509716796875	-0.38493560791015624	0		4.2861142578125	0.021510807037353516	0		5.72126513671875	0.23380821228027343	0		-0.370150146484375	5.8879931640625	0		
0.062288116455078125	0.0014838730096817018	0		0.6306193237304687	-2.743173828125	0		-0.9401799926757812	-0.04176776123046875	0		0.11517723083496094	-3.300186767578125	0		1.0240196533203125	-1.0589205322265625	0		2.7696875	-0.38186752319335937	0		4.27963330078125	0.016464975357055663	0		5.7089697265625	0.2684695434570312	0		-0.35850775146484376	5.88485498046875	0		
0.05613003158569336	0.0015260349512100219	0		0.631264404296875	-2.757211669921875	0		-0.8583724365234375	-0.04556137466430664	0		0.10286920928955078	-3.3080869140625	0		1.038671630859375	-1.076103271484375	0		2.746365966796875	-0.39771810913085937	0		4.2743486328125	0.0034057300090789794	0		5.70226220703125	0.22513383483886718	0		-0.364537109375	5.88490625	0		
0.05221914291381836	-0.0064378161430358885	0		0.63325341796875	-2.768248779296875	0		-0.9411928100585938	-0.04373015213012695	0		0.11669696044921875	-3.33422705078125	0		1.02066552734375	-1.090955078125	0		2.740523193359375	-0.3977315368652344	0		4.25259521484375	0.011509259223937989	0		5.69460400390625	0.24236662292480468	0		-0.3853163757324219	5.87511962890625	0		
0.044826999664306644	0.0016499630212783814	0		0.6277031860351563	-2.76819677734375	0		-0.9335475463867188	-0.0317609920501709	0		0.11011089324951172	-3.336150390625	0		1.0121343383789063	-1.0938848876953124	0		2.73793310546875	-0.408769287109375	0		4.2569775390625	-0.0036404759883880617	0		5.69710400390625	0.2385950927734375	0		-0.4095873107910156	5.87838671875	0		
0.039742610931396485	0.0017323620319366455	0		0.6225315551757813	-2.7681328125	0		-0.9735919189453125	-0.027303766250610352	0		0.10087236785888672	-3.341030517578125	0		0.990967041015625	-1.09867529296875	0		2.726905029296875	-0.4017130737304688	0		4.23597216796875	0.004466175079345703	0		5.7005869140625	0.23307345581054686	0		-0.39838897705078125	5.88832568359375	0		
0.03505672073364258	0.0018291070461273194	0		0.6614942626953125	-2.794488525390625	0		-0.8622943115234375	-0.029317710876464845	0		0.08798621368408203	-3.3498564453125	0		1.0011350708007813	-1.1097579345703126	0		2.736106201171875	-0.4118439025878906	0		4.2422861328125	0.0043139829635620115	0		5.70077294921875	0.22418214416503907	0		-0.38392819213867185	5.88325	0		
0.030771738052368165	0.0019404319524765014	0		0.619213623046875	-2.78402294921875	0		-0.9435667114257813	-0.027412992477416992	0		0.07649674987792969	-3.358677001953125	0		0.9887229614257812	-1.1186002197265625	0		2.728767578125	-0.4157959289550781	0		4.2229423828125	-0.001571112036705017	0		5.6899892578125	0.2536373748779297	0		-0.3539622802734375	5.88803857421875	0		
0.02385162353515625	-9.039019942283631E-4	0		0.6480557861328125	-2.801244873046875	0		-0.8554527587890625	-0.027167665481567384	0		0.0643905258178711	-3.368472900390625	0		0.9628046264648438	-1.117289306640625	0		2.721822998046875	-0.4197339782714844	0		4.231921875	-0.014719636917114257	0		5.69493603515625	0.22392127990722657	0		-0.3765975341796875	5.8933662109375	0		
0.02832123374938965	-0.0028438189029693604	0		0.6304104614257813	-2.804986572265625	0		-0.96395849609375	-0.02595075798034668	0		0.10831381225585937	-3.41381103515625	0		0.96909619140625	-1.1332806396484374	0		2.704189453125	-0.43054666137695313	0		4.20947216796875	-0.008535150527954102	0		5.68889892578125	0.23256631469726563	0		-0.4129635009765625	5.88784912109375	0		
0.03224027252197265	0.004238825798034668	0		0.655155029296875	-2.8061337890625	0		-0.8470958862304687	-0.024965303421020508	0		0.10201962280273437	-3.41663037109375	0		0.974867431640625	-1.137248779296875	0		2.734962890625	-0.43682266235351563	0		4.21125146484375	-0.015571141242980957	0		5.70019384765625	0.23045008850097656	0		-0.3998385925292969	5.8958564453125	0		
